<?xml version="1.0" encoding="UTF-8"?>
<svg id="Layer_1" data-name="Layer 1" xmlns="http://www.w3.org/2000/svg" viewBox="0 0 15.66 9.67">
  <defs>
    <style>
      .cls-1 {
        fill: #fff;
      }
    </style>
  </defs>
  <path class="cls-1" d="m15.58,7.64c-.86-.85-1.94-1.39-3.14-1.57-.15-.02-.29.08-.32.24-.02.15.08.29.24.32.98.14,1.88.56,2.61,1.21-.91.8-2.07,1.25-3.29,1.27-1.16.02-2.29-.35-3.2-1.04,2.78-.36,4.94-2.73,4.96-5.59,0-.07-.03-.15-.08-.2-.06-.06-.13-.09-.2-.08-1.18,0-2.31.38-3.27,1.07-.12.09-.15.27-.06.39.04.06.11.1.18.11.07.01.15,0,.21-.05.78-.57,1.7-.89,2.66-.95-.08,1.26-.63,2.44-1.55,3.34-.8.77-1.81,1.26-2.89,1.4,1.71-2.21,1.58-5.41-.42-7.43-.05-.05-.12-.08-.2-.08s-.15.03-.2.08c-.85.86-1.39,1.94-1.57,3.14-.02.15.08.29.24.32.15.02.29-.08.32-.24.14-.98.56-1.88,1.21-2.61.83.94,1.27,2.16,1.25,3.44-.02,1.11-.39,2.16-1.05,3.02-.35-2.75-2.7-4.91-5.52-4.94-.08,0-.15.03-.2.08-.05.05-.08.12-.08.2v.52s0,.02,0,.03c.1.95.44,1.86.98,2.65.09.13.26.16.39.07.06-.04.1-.11.11-.18.01-.07,0-.15-.05-.21-.49-.7-.8-1.52-.89-2.37v-.21c1.25.08,2.42.63,3.3,1.55.76.79,1.24,1.79,1.39,2.86-2.2-1.69-5.38-1.53-7.38.43C.03,7.67,0,7.75,0,7.82c0,.07.03.15.08.2l.36.36s.01.01.02.02c1,.81,2.26,1.26,3.55,1.26h.01c1.01,0,2-.27,2.86-.78.06-.04.11-.1.13-.17.02-.07,0-.15-.03-.21-.04-.06-.1-.11-.17-.13-.07-.02-.15,0-.21.03-.78.46-1.67.7-2.58.71h-.01c-1.16,0-2.29-.4-3.18-1.13l-.15-.15c.94-.83,2.15-1.27,3.43-1.25,1.32.02,2.56.54,3.48,1.46,0,0,0,0,0,0,0,0,0,0,0,0,0,0,0,0,0,0,0,0,0,0,0,0,1.06,1.05,2.48,1.63,3.99,1.63h0c1.51,0,2.93-.58,3.99-1.63.05-.05.08-.12.08-.2s-.03-.15-.08-.2Z"/>
</svg>