<?xml version="1.0" encoding="UTF-8"?>
<svg id="Layer_1" data-name="Layer 1" xmlns="http://www.w3.org/2000/svg" viewBox="0 0 299.16 253.25">
  <defs>
    <style>
      .cls-1, .cls-2 {
        fill: #fff;
      }

      .cls-3 {
        letter-spacing: .06em;
      }

      .cls-2 {
        font-family: NunitoSans10pt-Bold, 'Nunito Sans 10pt';
        font-size: 33.53px;
        font-weight: 700;
      }

      .cls-4 {
        letter-spacing: .05em;
      }

      .cls-5 {
        letter-spacing: .06em;
      }
    </style>
  </defs>
  <path class="cls-1" d="m297.58,145.95c-16.42-16.24-37.14-26.59-59.94-29.93-2.91-.43-5.62,1.6-6.04,4.5-.42,2.9,1.59,5.62,4.5,6.04,18.64,2.73,35.85,10.72,49.93,23.17-17.32,15.29-39.55,23.9-62.92,24.33-22.21.42-43.66-6.63-61.07-19.88,53.03-6.82,94.43-52.19,94.73-106.73,0-1.41-.56-2.8-1.56-3.79-1.07-1.08-2.51-1.67-3.89-1.57-22.58.14-44.15,7.21-62.38,20.43-2.38,1.73-2.9,5.07-1.18,7.44.84,1.15,2.07,1.91,3.47,2.13,1.4.22,2.82-.11,3.97-.95,14.89-10.81,32.38-17.08,50.72-18.21-1.51,24.13-11.94,46.69-29.56,63.77-15.25,14.79-34.49,24.06-55.14,26.82,32.7-42.26,30.1-103.41-8.05-141.98-.97-.98-2.35-1.55-3.79-1.55s-2.82.56-3.79,1.55c-16.24,16.42-26.59,37.14-29.93,59.93-.42,2.9,1.59,5.62,4.51,6.04,2.91.41,5.61-1.61,6.03-4.5,2.73-18.64,10.72-35.85,23.17-49.93,15.88,18.01,24.35,41.22,23.9,65.66-.39,21.15-7.45,41.24-20.08,57.76-6.76-52.59-51.58-93.84-105.44-94.39-1.45-.01-2.81.53-3.83,1.54-1,.99-1.58,2.37-1.58,3.79v9.89c0,.17,0,.35.03.54,1.84,18.12,8.35,35.59,18.8,50.53,1.68,2.4,5,2.99,7.42,1.31,1.17-.82,1.94-2.04,2.19-3.44.25-1.4-.06-2.82-.88-3.98-9.36-13.38-15.21-29.02-16.9-45.24v-4.08c23.86,1.59,46.16,12.04,63.05,29.61,14.59,15.18,23.74,34.27,26.48,54.72-41.95-32.31-102.76-29.13-140.95,8.28C.57,146.6,0,147.94,0,149.37c0,1.42.56,2.8,1.56,3.8l6.97,6.97c.13.13.27.26.42.38,19.05,15.53,43.13,24.08,67.79,24.08h.21c19.27-.01,38.18-5.19,54.67-14.98,1.22-.73,2.09-1.89,2.44-3.26.35-1.38.15-2.81-.58-4.03-.72-1.22-1.88-2.09-3.26-2.44-1.38-.36-2.82-.15-4.04.58-14.84,8.8-31.85,13.47-49.21,13.49h-.27c-22.11-.01-43.7-7.65-60.8-21.52l-2.89-2.88c18.01-15.78,41.13-24.22,65.45-23.83,25.19.41,48.82,10.28,66.54,27.8,0,0,.01.01.02.02,0,0,0,0,0,0,0,0,0,0,0,0,.01.01.02.02.03.03,20.34,20.1,47.41,31.18,76.23,31.18h.01c28.85,0,55.95-11.09,76.3-31.22,1-.99,1.58-2.37,1.58-3.79s-.58-2.79-1.58-3.79Z"/>
  <text class="cls-2" transform="translate(46.15 243.53)"><tspan class="cls-3" x="0" y="0">Flip Mar</tspan><tspan class="cls-4" x="149.77" y="0">k</tspan><tspan class="cls-5" x="169.98" y="0">e</tspan><tspan class="cls-3" x="191" y="0">t</tspan></text>
</svg>